<svg width="99" height="67" viewBox="0 0 99 67" fill="none" xmlns="http://www.w3.org/2000/svg">
<path d="M9.18454 13.6094H83.5312V6.74191C83.5313 6.4321 83.4297 6.12614 83.2339 5.84611C83.0381 5.56607 82.7528 5.31894 82.3988 5.12253C82.0448 4.92612 81.6308 4.78533 81.1866 4.71032C80.7424 4.6353 80.2792 4.62793 79.8303 4.68873L8.67407 12.6031C8.14422 12.6745 7.65123 12.8385 7.24415 13.0789C6.83706 13.3193 6.53009 13.6276 6.35376 13.9732C7.25495 13.7321 8.21547 13.6086 9.18454 13.6094Z" fill="#F92356"/>
<path d="M89.6221 16.75H9.18457C8.36406 16.75 7.57715 16.9706 6.99696 17.3632C6.41677 17.7559 6.09082 18.2885 6.09082 18.8438V56.5312C6.09082 57.0865 6.41677 57.6191 6.99696 58.0118C7.57715 58.4044 8.36406 58.625 9.18457 58.625H89.6221C90.4426 58.625 91.2295 58.4044 91.8097 58.0118C92.3899 57.6191 92.7158 57.0865 92.7158 56.5312V18.8438C92.7158 18.2885 92.3899 17.7559 91.8097 17.3632C91.2295 16.9706 90.4426 16.75 89.6221 16.75ZM71.1562 41.875C69.9325 41.875 68.7362 41.6294 67.7187 41.1693C66.7011 40.7092 65.9081 40.0552 65.4397 39.29C64.9714 38.5248 64.8489 37.6829 65.0876 36.8706C65.3264 36.0583 65.9157 35.3121 66.781 34.7265C67.6464 34.1409 68.7489 33.742 69.9491 33.5805C71.1494 33.4189 72.3935 33.5018 73.5241 33.8188C74.6547 34.1357 75.6211 34.6724 76.301 35.361C76.9809 36.0497 77.3438 36.8593 77.3438 37.6875C77.3438 38.7981 76.6919 39.8632 75.5315 40.6485C74.3711 41.4338 72.7973 41.875 71.1562 41.875Z" fill="#F92356"/>
<path d="M6.05792 33.958V15.1797C6.05792 13.5662 7.16394 12.7614 9.03952 12.5625C15.8458 11.8388 30.0345 11.4502 30.0345 11.4502C30.0345 11.4502 28.4238 13.5439 24.75 13.5439V16.75C28.3271 16.75 30.8079 19.8252 30.8079 19.8252L16.4026 30.8828L6.05792 33.958Z" fill="#F92356"/>
</svg>
