<svg width="99" height="67" viewBox="0 0 99 67" fill="none" xmlns="http://www.w3.org/2000/svg">
<path d="M6.1875 54.4375C6.1875 54.9928 6.51345 55.5254 7.09364 55.918C7.67383 56.3107 8.46074 56.5312 9.28125 56.5312H89.7188C90.5393 56.5312 91.3262 56.3107 91.9064 55.918C92.4866 55.5254 92.8125 54.9928 92.8125 54.4375V29.0508H6.1875V54.4375ZM18.9492 36.3789C18.9492 36.1013 19.1122 35.835 19.4023 35.6387C19.6924 35.4423 20.0858 35.332 20.4961 35.332H38.2852C38.6954 35.332 39.0889 35.4423 39.379 35.6387C39.6691 35.835 39.832 36.1013 39.832 36.3789V44.7539C39.832 45.0316 39.6691 45.2978 39.379 45.4942C39.0889 45.6905 38.6954 45.8008 38.2852 45.8008H20.4961C20.0858 45.8008 19.6924 45.6905 19.4023 45.4942C19.1122 45.2978 18.9492 45.0316 18.9492 44.7539V36.3789Z" fill="#F92356"/>
<path d="M89.7188 10.4688H9.28125C8.46074 10.4688 7.67383 10.6893 7.09364 11.082C6.51345 11.4746 6.1875 12.0072 6.1875 12.5625V21.1992H92.8125V12.5625C92.8125 12.0072 92.4866 11.4746 91.9064 11.082C91.3262 10.6893 90.5393 10.4688 89.7188 10.4688Z" fill="#F92356"/>
</svg>
