<svg width="99" height="67" viewBox="0 0 99 67" fill="none" xmlns="http://www.w3.org/2000/svg">
<path d="M79.1671 51.0181C69.9961 53.6523 59.052 55.0983 49.5 55.0983C39.948 55.0983 29.029 53.6196 19.8309 51.0181C10.6328 48.4167 9.28125 46.2143 9.28125 46.2143V51.2131C9.28125 55.2894 12.7617 56.9238 22.2982 59.6339C29.6091 61.712 39.2868 62.8125 49.5 62.8125C59.7132 62.8125 69.3909 61.712 76.7018 59.6339C86.2383 56.9238 89.7188 55.2894 89.7188 51.2131V46.2143C89.7188 46.2143 88.3382 48.3853 79.1671 51.0181Z" fill="#F92356"/>
<path d="M12.315 22.6675C14.4865 23.9551 17.6943 25.2179 21.5963 26.3211C29.8102 28.6451 40.2458 30.0335 49.5096 30.0335C58.7735 30.0335 69.2091 28.6451 77.423 26.3211C81.3153 25.2179 84.5232 23.9551 86.6946 22.6675C87.8663 21.9726 88.7925 21.3432 89.2991 20.9859C89.575 20.7908 89.7288 20.531 89.7284 20.261V16.8508V16.8377C89.566 13.0702 84.9505 9.71762 76.7327 7.39748C69.3831 5.32729 59.7171 4.1875 49.5 4.1875C39.2829 4.1875 29.6168 5.32729 22.2866 7.39748C14.0862 9.71238 9.47459 13.0571 9.2909 16.8154V20.261C9.28993 20.5309 9.44302 20.7906 9.71822 20.9859C10.2171 21.3432 11.1413 21.9726 12.315 22.6675Z" fill="#F92356"/>
<path d="M79.1671 29.039C70.5762 31.5371 59.052 33.1192 49.5 33.1192C39.948 33.1192 28.449 31.5136 19.8329 29.039C11.2168 26.5645 9.28125 24.2352 9.28125 24.2352V30.4327C9.29672 31.4167 10.3447 32.5526 12.3151 33.7212C14.4884 35.0088 17.6943 36.2729 21.5963 37.3748C29.8005 39.7001 40.2362 41.0899 49.5 41.0899C58.7638 41.0899 69.1995 39.7027 77.4134 37.3774C81.3057 36.2755 84.5135 35.0114 86.6849 33.7238C88.6669 32.546 89.7168 31.4063 89.7188 30.417V24.2352C89.7188 24.2352 87.76 26.5409 79.1671 29.039Z" fill="#F92356"/>
<path d="M79.1671 40.0927C69.9961 42.6602 59.052 44.1729 49.5 44.1729C39.948 44.1729 28.2556 42.4979 19.8329 40.0927C11.4101 37.6875 9.28125 35.2889 9.28125 35.2889V41.3411C9.28125 42.3291 10.3331 43.4715 12.3151 44.6466C14.4865 45.9343 17.6924 47.1984 21.5963 48.3002C29.8102 50.6256 40.2439 52.0127 49.5097 52.0127C58.7754 52.0127 69.2091 50.6256 77.423 48.3002C81.3154 47.1971 84.5232 45.9343 86.6946 44.6466C88.6649 43.4781 89.7129 42.3422 89.7284 41.3581V35.2889C89.7284 35.2889 88.3401 37.5253 79.1671 40.0927Z" fill="#F92356"/>
</svg>
